# xmcd
#
# Track frame offsets:
#	150
#	12942
#	25309
#	34427
#	46055
#	54644
#	65976
#	77700
#	93467
#	103640
#	118486
#	131786
#	157829
#	172184
#	187868
#	198982
#	213431
#	224053
#	235539
#	249898
#	266383
#	272554
#	281563
#	290832
#
# Disc length: 3989 seconds
#
# Revision: 1
# Processed by: cddbd v1.5.2PL0 Copyright (c) Steve Scherf et al.
# Submitted via: audiograbber 1.83.01
#
DISCID=6b0f9318
DTITLE=Al Jones - AL JONES - All My Friends Are Back Again - The Anthology [CD 
DTITLE=1)
DYEAR=1900
DGENRE=Folk
TTITLE0=Dan Scaggs
TTITLE1=I'd rather be the devil (Devil got my woman)
TTITLE2=Searchin' the desert for the blues
TTITLE3=Siamese cat
TTITLE4=Come join my orchestra
TTITLE5=Ire and Spottiswoad
TTITLE6=Tramp
TTITLE7=Sarah in the Isle Of Wight
TTITLE8=What I was thinking
TTITLE9=River bend
TTITLE10=Railway lines
TTITLE11=Big city
TTITLE12=What I was thinking (alt. version)
TTITLE13=It takes a lot to laugh, it takes a train to cry
TTITLE14=Running shoes
TTITLE15=I'd rather be the devil (Devil got my woman) (Live)
TTITLE16=A mess of blues
TTITLE17=That'll be the day
TTITLE18=La bamba
TTITLE19=Night is falling
TTITLE20=While travelling on a train going West  (Live)
TTITLE21=Jupiter (Live)
TTITLE22=Sheila (Live)
TTITLE23=Boys (Live)
EXTD=
EXTT0=
EXTT1=
EXTT2=
EXTT3=
EXTT4=
EXTT5=
EXTT6=
EXTT7=
EXTT8=
EXTT9=
EXTT10=
EXTT11=
EXTT12=
EXTT13=
EXTT14=
EXTT15=
EXTT16=
EXTT17=
EXTT18=
EXTT19=
EXTT20=
EXTT21=
EXTT22=
EXTT23=
PLAYORDER=
